<?xml version="1.0" standalone="no"?>
<!DOCTYPE svg PUBLIC "-//W3C//DTD SVG 20010904//EN"
 "http://www.w3.org/TR/2001/REC-SVG-20010904/DTD/svg10.dtd">
<svg version="1.0" xmlns="http://www.w3.org/2000/svg"
 width="500.000000pt" height="500.000000pt" viewBox="0 0 500.000000 500.000000"
 preserveAspectRatio="xMidYMid meet">

<g transform="translate(0.000000,500.000000) scale(0.100000,-0.100000)"
fill="#000000" stroke="none">
<path d="M955 4117 c-73 -17 -147 -85 -165 -149 -7 -24 -9 -442 -8 -1220 l3
-1183 28 -48 c29 -49 87 -98 146 -123 28 -12 228 -14 1284 -14 l1251 0 -59 60
-59 60 -1186 2 -1185 3 -31 22 c-17 12 -40 35 -50 50 -18 27 -19 65 -19 1008
l0 980 1583 3 1582 2 0 -958 0 -958 54 -53 c51 -50 54 -52 59 -29 4 13 7 551
7 1197 0 1165 0 1175 -21 1217 -26 56 -87 110 -141 126 -34 10 -342 13 -1538
13 -900 1 -1511 -3 -1535 -8z m173 -217 c30 -28 29 -74 -3 -105 -40 -41 -105
-28 -124 25 -11 32 -5 54 22 88 15 20 80 15 105 -8z m271 -6 c28 -35 26 -69
-4 -99 -33 -34 -78 -33 -110 1 -30 33 -32 63 -4 98 16 20 29 26 59 26 30 0 43
-6 59 -26z m268 4 c31 -29 30 -72 -3 -105 -21 -21 -32 -24 -62 -19 -39 6 -71
38 -72 69 0 11 9 32 21 48 26 37 81 40 116 7z"/>
<path d="M2685 3451 c-133 -17 -293 -78 -398 -150 -164 -113 -301 -302 -358
-496 -30 -101 -37 -313 -15 -424 39 -192 109 -324 246 -462 167 -168 354 -253
586 -266 201 -11 394 41 551 149 l43 29 76 -76 c75 -76 76 -76 55 -94 -12 -11
-21 -30 -21 -47 0 -25 45 -74 298 -326 163 -163 307 -301 319 -307 39 -20 120
-13 161 13 73 46 102 94 102 167 0 22 -6 52 -14 67 -8 15 -150 161 -314 326
-317 315 -303 304 -364 281 -8 -3 -41 23 -80 62 l-67 68 50 75 c163 245 204
534 114 806 -93 276 -342 507 -630 582 -90 24 -250 34 -340 23z m241 -152
c384 -68 659 -417 630 -799 -24 -316 -251 -592 -557 -676 -89 -25 -308 -25
-399 0 -319 86 -560 398 -560 726 0 414 337 754 751 759 41 1 102 -4 135 -10z"/>
<path d="M2875 3028 c-3 -7 -44 -143 -91 -303 -47 -159 -95 -319 -106 -355
-22 -73 -33 -109 -46 -160 -5 -19 -13 -43 -17 -52 -6 -16 0 -18 54 -18 41 0
63 4 65 13 2 6 11 37 21 67 9 30 21 71 27 90 5 19 13 50 19 68 5 17 13 47 18
65 5 17 23 77 39 132 68 228 132 449 132 457 0 14 -110 10 -115 -4z"/>
<path d="M2368 2744 c-93 -91 -168 -171 -168 -178 0 -15 325 -331 340 -331 6
0 23 21 37 47 l26 47 -116 113 c-65 61 -117 117 -117 123 0 6 54 64 120 129
l119 117 -32 49 c-18 27 -34 50 -37 50 -3 0 -80 -75 -172 -166z"/>
<path d="M3052 2859 l-32 -49 120 -116 c66 -65 120 -121 120 -126 0 -5 -54
-62 -121 -127 l-120 -118 28 -48 c15 -26 32 -48 36 -47 5 0 85 73 178 163 153
147 188 191 160 201 -6 2 -79 71 -163 153 -84 83 -158 154 -163 157 -6 3 -25
-16 -43 -43z"/>
</g>
</svg>
