<?xml version="1.0" standalone="no"?>
<!DOCTYPE svg PUBLIC "-//W3C//DTD SVG 20010904//EN"
 "http://www.w3.org/TR/2001/REC-SVG-20010904/DTD/svg10.dtd">
<svg version="1.0" xmlns="http://www.w3.org/2000/svg"
 width="1024.000000pt" height="1024.000000pt" viewBox="0 0 1024.000000 1024.000000"
 preserveAspectRatio="xMidYMid meet">

<g transform="translate(0.000000,1024.000000) scale(0.100000,-0.100000)"
fill="#000000" stroke="none">
<path d="M976 8379 c-99 -23 -194 -96 -249 -191 -61 -103 -58 57 -55 -2504 3
-2273 4 -2340 22 -2389 41 -107 129 -200 222 -235 54 -20 67 -20 2243 -20
2388 0 2222 -4 2207 55 l-6 25 -2183 2 -2182 3 -56 26 c-68 32 -118 81 -150
145 l-24 49 -3 2078 -2 2077 2655 0 2655 0 0 -1808 c0 -1393 3 -1811 12 -1820
15 -15 51 -15 66 0 15 15 18 4106 2 4186 -28 148 -150 279 -295 317 -53 13
-321 15 -2450 14 -1399 -1 -2406 -5 -2429 -10z m4926 -121 c25 -15 64 -48 86
-73 67 -76 75 -111 80 -348 2 -115 1 -219 -2 -233 l-6 -24 -2648 2 -2647 3 0
240 c0 234 1 241 24 289 32 65 90 122 154 152 l52 24 2430 -3 2430 -2 47 -27z"/>
<path d="M1181 8093 c-76 -37 -110 -143 -73 -226 62 -140 270 -121 312 28 39
138 -110 261 -239 198z"/>
<path d="M1680 8103 c-134 -51 -147 -246 -20 -310 54 -28 99 -29 148 -4 46 24
67 46 87 96 32 75 -7 169 -86 211 -28 14 -100 18 -129 7z"/>
<path d="M2155 8096 c-67 -29 -113 -119 -99 -194 9 -50 77 -118 127 -127 80
-15 157 21 187 88 26 56 25 105 -3 158 -41 77 -134 109 -212 75z"/>
<path d="M7815 7674 c-43 -8 -115 -30 -160 -49 l-81 -35 -42 20 c-129 63 -277
11 -313 -109 -12 -41 -12 -41 -63 -41 -55 0 -126 -27 -165 -63 -13 -12 -37
-49 -52 -82 -59 -123 -21 -259 93 -331 27 -17 38 -30 34 -40 -3 -9 -17 -95
-31 -192 -41 -280 -55 -324 -144 -425 -94 -107 -73 -187 62 -237 l42 -16 12
-99 c15 -122 37 -194 77 -254 35 -52 108 -105 169 -123 47 -14 265 -17 313 -5
l31 8 7 -138 c3 -76 9 -149 12 -164 5 -24 0 -27 -89 -62 -257 -102 -447 -253
-588 -466 -67 -101 -217 -390 -394 -759 l-88 -183 18 -33 18 -33 -63 -111
c-34 -62 -66 -112 -70 -112 -14 0 -525 403 -686 541 -102 88 -101 86 -169 304
-25 83 -67 193 -92 245 -40 84 -58 107 -152 201 -100 100 -105 107 -88 123 21
20 21 30 1 50 -17 18 -60 21 -69 6 -10 -17 -18 -12 -110 61 -128 103 -184 121
-252 79 -40 -24 -56 -53 -51 -96 3 -29 1 -34 -23 -39 -37 -8 -51 -28 -43 -59
7 -30 37 -41 92 -33 36 4 39 2 129 -98 l92 -103 -47 -7 c-75 -11 -140 -44
-168 -84 -13 -20 -24 -43 -24 -53 0 -9 -16 -26 -35 -38 -41 -25 -65 -66 -65
-110 0 -18 -9 -40 -21 -53 -82 -87 -22 -245 115 -302 26 -11 40 -27 59 -69 57
-123 133 -207 265 -293 87 -56 95 -64 323 -318 189 -212 625 -646 719 -717
162 -122 296 -178 427 -178 192 0 324 82 490 305 l76 100 -6 -70 c-4 -38 -18
-205 -32 -370 -14 -165 -30 -340 -35 -390 -16 -147 -13 -192 10 -205 34 -18
58 -4 64 38 3 20 19 208 36 417 17 209 37 458 45 554 l15 174 77 137 78 138
52 -5 c67 -7 76 0 126 107 53 116 211 491 259 619 37 98 38 105 23 128 -21 32
-46 26 -68 -17 -9 -19 -82 -192 -162 -384 -80 -192 -149 -354 -154 -359 -15
-15 -186 49 -366 138 -149 73 -432 246 -449 274 -6 10 11 48 216 471 161 332
240 461 347 573 208 216 523 353 937 407 341 44 484 36 666 -36 331 -132 561
-369 677 -698 59 -166 117 -437 160 -748 31 -218 34 -203 -47 -227 -37 -12
-118 -34 -178 -50 l-111 -29 1 423 c1 344 -2 425 -13 438 -16 20 -47 22 -58 5
-4 -7 -9 -141 -10 -298 -2 -407 -33 -1151 -79 -1919 -17 -284 -17 -281 34
-281 14 0 26 8 32 22 11 28 43 581 78 1353 l7 159 139 39 c76 20 140 36 142
35 10 -10 26 -228 31 -423 6 -244 -3 -399 -53 -909 -25 -260 -24 -276 17 -276
34 0 46 41 63 215 9 94 23 235 31 315 27 277 37 503 31 665 -7 161 -22 359
-32 426 -5 33 -3 37 23 42 51 10 67 29 65 80 -4 98 -68 494 -113 697 -91 413
-237 656 -516 866 -112 85 -319 182 -446 211 l-78 18 -14 50 c-13 45 -53 239
-69 337 -6 36 -6 37 63 82 186 124 301 314 327 540 5 44 17 75 46 122 61 97
90 191 96 309 2 59 -1 124 -8 158 -17 83 -72 186 -130 243 -50 49 -140 103
-172 104 -9 0 -30 23 -48 55 -38 66 -130 152 -208 193 -166 88 -399 122 -597
86z m-306 -733 c6 -10 27 -79 47 -152 55 -206 89 -259 165 -259 41 0 55 13
109 102 36 58 82 76 147 59 121 -33 165 -148 104 -276 -26 -57 -67 -101 -151
-165 l-33 -25 23 -45 c79 -156 221 -287 373 -345 l61 -22 17 -106 c15 -88 45
-220 65 -288 4 -14 -12 -17 -108 -23 -153 -9 -391 -41 -516 -70 -56 -13 -104
-20 -106 -17 -2 3 -10 84 -17 179 -7 100 -18 180 -25 190 -11 15 -21 15 -110
4 -335 -41 -430 29 -465 344 -6 60 -17 114 -23 120 -6 6 -33 17 -61 23 -93 23
-97 46 -21 131 77 86 94 130 117 294 27 199 48 327 55 337 3 5 53 9 112 10 59
0 125 4 147 8 65 14 84 12 94 -8z m-2649 -1879 c41 -26 290 -245 361 -319 37
-37 78 -86 91 -108 37 -59 91 -203 134 -353 44 -156 54 -170 227 -315 174
-146 628 -498 665 -515 52 -25 75 -6 153 131 36 65 69 121 73 124 3 3 20 -5
38 -19 101 -76 381 -230 525 -289 46 -19 83 -38 83 -43 0 -18 -102 -201 -177
-314 -169 -260 -298 -397 -414 -437 -52 -19 -168 -19 -234 -1 -67 18 -177 74
-250 128 -143 106 -549 513 -834 838 -110 125 -148 161 -221 207 -127 82 -205
173 -264 306 -23 52 -28 57 -57 57 -59 0 -139 106 -112 149 7 11 33 18 88 23
84 8 105 18 105 54 0 30 -13 37 -83 45 -67 8 -75 13 -57 34 17 21 75 35 146
35 69 0 90 14 80 55 -6 25 -13 28 -88 40 -44 7 -47 17 -15 38 15 10 56 16 121
18 83 3 100 7 112 23 8 11 14 27 14 36 0 8 -48 69 -107 135 -105 119 -183 226
-183 252 0 16 42 9 80 -15z"/>
<path d="M7190 6605 c-22 -26 -25 -93 -5 -115 21 -24 58 -26 75 -5 17 21 24
89 11 114 -14 25 -62 29 -81 6z"/>
<path d="M1467 7206 c-145 -61 -233 -162 -272 -313 -28 -106 -12 -227 41 -322
l25 -45 -99 -92 c-55 -51 -105 -107 -112 -125 -13 -29 -12 -33 9 -50 13 -11
26 -19 30 -19 3 0 53 47 111 105 58 58 108 105 112 105 4 0 33 -18 64 -40 144
-101 339 -106 487 -13 l49 30 90 -93 c50 -52 99 -94 109 -94 21 0 49 26 49 46
0 8 -41 59 -90 114 l-90 99 29 43 c113 168 84 419 -66 564 -24 24 -79 61 -121
81 -72 36 -81 38 -186 41 -99 2 -117 0 -169 -22z m288 -87 c78 -29 164 -111
201 -191 38 -84 40 -192 4 -283 -44 -112 -173 -212 -290 -222 -104 -10 -235
40 -299 112 -101 116 -128 268 -68 397 42 93 114 158 215 194 58 21 172 17
237 -7z"/>
<path d="M2496 7139 c-15 -22 -11 -48 8 -61 6 -4 713 -8 1572 -8 1200 0 1563
3 1572 12 17 17 15 42 -6 61 -17 16 -141 17 -1575 17 l-1556 0 -15 -21z"/>
<path d="M2492 6778 c-17 -17 -15 -44 4 -62 14 -14 170 -16 1574 -16 1404 0
1560 2 1574 16 19 18 21 45 4 62 -17 17 -3139 17 -3156 0z"/>
<path d="M2512 6413 c-22 -9 -34 -41 -22 -63 11 -20 21 -20 1579 -20 1681 0
1599 -2 1589 47 -8 44 27 43 -1593 42 -847 0 -1546 -3 -1553 -6z"/>
<path d="M4039 5981 c-42 -42 -36 -101 11 -101 26 0 70 48 70 78 0 57 -37 67
-81 23z"/>
<path d="M4260 6003 c-33 -13 -40 -52 -14 -77 24 -24 165 -22 187 2 21 23 22
46 1 66 -11 12 -34 16 -87 15 -40 0 -79 -3 -87 -6z"/>
<path d="M4570 5993 c-27 -19 -25 -49 4 -68 31 -20 156 -19 186 2 23 16 26 55
7 72 -20 16 -172 12 -197 -6z"/>
<path d="M4906 5994 c-20 -19 -20 -35 -2 -59 20 -28 164 -35 189 -10 23 22 21
62 -2 75 -32 17 -167 13 -185 -6z"/>
<path d="M5250 6003 c-33 -13 -40 -52 -14 -77 20 -20 162 -23 186 -3 23 18 28
43 14 63 -10 13 -31 18 -92 20 -43 2 -86 1 -94 -3z"/>
<path d="M5551 5982 c-13 -25 7 -63 44 -81 34 -16 58 -5 63 28 8 52 -84 97
-107 53z"/>
<path d="M1175 5974 c-44 -22 -95 -74 -114 -114 -14 -32 -16 -147 -19 -1191
-2 -1125 -2 -1157 17 -1180 16 -21 22 -22 45 -11 l26 11 2 1163 c3 1145 3
1163 23 1190 47 62 -38 58 1218 58 l1144 0 33 -22 c18 -13 39 -39 46 -58 10
-27 13 -289 13 -1182 1 -1137 1 -1147 21 -1158 14 -8 26 -8 40 0 20 11 20 17
18 1194 l-3 1182 -28 42 c-17 26 -45 51 -77 67 l-49 25 -1163 0 c-1032 0
-1166 -2 -1193 -16z"/>
<path d="M4005 5768 c-3 -13 -5 -59 -3 -102 2 -62 7 -81 21 -90 12 -8 22 -8
35 0 14 9 17 27 17 110 l0 99 -32 3 c-27 3 -33 -1 -38 -20z"/>
<path d="M5601 5776 c-8 -9 -11 -47 -9 -107 l3 -94 29 -3 c16 -2 32 2 37 10
10 15 12 168 3 192 -8 20 -47 21 -63 2z"/>
<path d="M4710 5655 l0 -85 -30 19 c-35 21 -92 19 -127 -5 -40 -26 -63 -86
-63 -163 0 -91 20 -134 75 -161 51 -25 61 -25 110 0 35 18 41 19 51 5 6 -8 26
-15 44 -15 l33 0 -6 167 c-4 91 -7 201 -7 245 l0 78 -40 0 -40 0 0 -85z m-30
-143 c30 -25 40 -114 17 -159 -45 -86 -138 -14 -122 94 11 74 58 103 105 65z"/>
<path d="M4886 5724 c-9 -8 -16 -26 -16 -38 0 -54 77 -63 95 -12 8 24 6 31
-14 47 -28 23 -45 24 -65 3z"/>
<path d="M1775 5395 l0 -255 33 0 c17 0 35 0 40 0 4 0 9 59 12 131 5 122 7
132 29 150 13 10 33 19 46 19 42 0 50 -24 55 -169 l5 -136 43 -3 44 -3 -4 153
c-2 98 -9 162 -17 179 -30 61 -117 78 -170 33 l-31 -26 0 91 0 91 -42 0 -43 0
0 -255z"/>
<path d="M3065 5637 c-3 -7 -4 -123 -3 -257 l3 -245 40 0 40 0 3 258 2 257
-40 0 c-24 0 -43 -5 -45 -13z"/>
<path d="M2223 5603 c-20 -4 -23 -11 -23 -48 0 -40 -2 -44 -27 -47 -23 -2 -29
-8 -31 -35 -3 -31 -1 -33 27 -33 l31 0 0 -110 c0 -136 13 -174 67 -196 39 -17
94 -14 119 7 8 6 14 25 14 41 0 29 -1 30 -39 23 -62 -10 -71 6 -71 131 l0 104
50 0 50 0 0 36 0 36 -50 -4 -50 -3 0 53 c0 56 -2 58 -67 45z"/>
<path d="M4317 5543 c-113 -58 -142 -88 -115 -120 19 -23 210 -115 219 -106 4
4 11 20 14 34 6 25 2 30 -54 60 -34 17 -60 37 -58 42 2 6 26 22 55 36 49 25
51 28 51 69 1 23 0 42 -1 42 -2 -1 -52 -26 -111 -57z"/>
<path d="M4880 5423 l0 -173 40 0 40 0 -2 173 -3 172 -37 0 -38 0 0 -172z"/>
<path d="M5010 5593 c0 -4 24 -82 53 -173 l53 -165 49 0 49 0 54 163 c58 174
58 181 5 182 -28 0 -33 -11 -69 -137 -16 -57 -32 -103 -36 -103 -4 0 -14 26
-23 58 -9 31 -24 84 -33 117 l-17 60 -43 3 c-23 2 -42 0 -42 -5z"/>
<path d="M5362 5553 c3 -35 8 -41 60 -68 31 -17 60 -33 63 -37 4 -4 -18 -21
-49 -38 -31 -18 -61 -40 -66 -49 -9 -18 -3 -61 9 -61 3 0 50 24 103 54 53 30
99 51 102 48 4 -3 6 -38 6 -77 0 -58 4 -75 19 -89 50 -45 75 6 65 132 -6 78
-8 84 -32 94 -15 5 -79 37 -143 69 -64 32 -122 59 -128 59 -8 0 -11 -13 -9
-37z"/>
<path d="M1530 5505 c-142 -80 -170 -101 -170 -128 0 -13 8 -31 18 -39 22 -20
239 -138 253 -138 6 0 9 18 7 43 l-3 42 -89 46 -90 47 92 46 92 46 0 40 c0 21
-3 41 -8 44 -4 2 -50 -20 -102 -49z"/>
<path d="M2587 5496 c-33 -23 -35 -23 -40 -5 -4 15 -14 19 -46 19 l-41 0 0
-183 c0 -101 2 -186 4 -188 3 -3 23 -3 45 -1 l41 4 0 123 c0 116 1 123 25 149
25 28 68 35 82 14 4 -7 10 -76 13 -153 l5 -140 40 0 40 0 5 131 c6 147 17 174
71 174 45 0 54 -28 55 -173 0 -70 4 -130 7 -133 3 -4 22 -3 42 0 l37 7 -4 154
c-3 137 -5 157 -24 182 -40 53 -115 56 -174 7 -16 -14 -30 -21 -30 -15 0 17
-61 51 -91 51 -14 0 -42 -11 -62 -24z"/>
<path d="M3260 5480 l0 -40 81 -41 82 -41 -29 -16 c-16 -10 -53 -28 -81 -41
-51 -23 -53 -26 -53 -63 0 -21 5 -38 11 -38 12 0 215 105 237 122 6 6 12 25
12 42 0 30 -5 34 -123 94 -67 34 -125 62 -129 62 -5 0 -8 -18 -8 -40z"/>
<path d="M4010 5461 c-5 -11 -10 -63 -10 -116 0 -94 0 -96 27 -106 45 -17 55
4 55 121 0 106 -5 120 -44 120 -10 0 -22 -9 -28 -19z"/>
<path d="M4017 5133 c-13 -24 -16 -66 -6 -85 18 -34 99 -108 126 -114 29 -8
53 11 53 42 0 16 -13 32 -44 54 -25 16 -48 40 -52 53 -13 44 -62 76 -77 50z"/>
<path d="M5601 5121 c-6 -11 -11 -47 -11 -80 0 -50 3 -61 20 -66 34 -11 58 11
65 59 10 61 -5 100 -38 104 -18 2 -29 -3 -36 -17z"/>
<path d="M4306 5001 c-27 -30 -7 -67 41 -74 110 -19 163 -2 163 49 0 32 -32
44 -119 44 -54 0 -71 -4 -85 -19z"/>
<path d="M5286 4994 c-20 -53 7 -74 95 -74 81 0 109 11 109 43 0 39 -18 47
-111 47 -70 0 -88 -3 -93 -16z"/>
<path d="M1777 4863 c-4 -3 -7 -118 -7 -255 l0 -248 44 0 44 0 4 124 c3 106 6
127 22 145 27 30 76 25 93 -9 8 -16 13 -68 13 -142 l0 -118 40 0 40 0 0 148
c0 162 -5 178 -62 208 -39 20 -92 13 -124 -17 l-24 -22 0 96 0 97 -38 0 c-21
0 -42 -3 -45 -7z"/>
<path d="M3107 4864 c-4 -4 -7 -47 -7 -95 l0 -88 -27 25 c-24 22 -35 25 -71
21 -102 -11 -158 -138 -121 -270 26 -95 116 -134 192 -83 35 24 37 24 37 6 0
-17 7 -20 40 -20 l40 0 0 250 0 250 -24 0 c-13 0 -31 2 -38 5 -8 3 -17 2 -21
-1z m-28 -240 c16 -20 21 -41 21 -84 0 -94 -58 -142 -110 -90 -26 26 -34 60
-27 118 9 78 74 109 116 56z"/>
<path d="M1500 4688 c-68 -38 -128 -74 -132 -81 -26 -41 2 -78 102 -127 35
-18 81 -43 102 -56 57 -36 70 -32 66 18 -3 42 -3 42 -92 89 l-89 47 54 28 c30
16 71 36 92 46 34 15 37 21 37 57 0 22 -3 42 -7 44 -5 3 -64 -27 -133 -65z"/>
<path d="M2245 4715 c-52 -18 -82 -57 -96 -122 -27 -118 30 -224 126 -239 104
-15 192 38 156 95 -7 11 -12 11 -32 -2 -64 -40 -131 -28 -154 28 -8 19 -15 37
-15 39 0 3 48 7 108 8 l107 3 -1 52 c-3 113 -95 176 -199 138z m93 -72 c11
-10 23 -28 27 -40 6 -22 4 -23 -65 -23 -69 0 -71 1 -65 23 8 28 41 57 65 57
10 0 27 -8 38 -17z"/>
<path d="M2592 4715 c-70 -22 -86 -43 -59 -79 13 -17 15 -18 47 -1 64 33 130
16 130 -36 0 -12 -12 -17 -53 -22 -107 -11 -167 -66 -153 -141 14 -72 104
-107 172 -67 33 20 38 21 46 7 5 -10 22 -16 42 -16 l33 0 -5 148 c-5 164 -11
184 -67 208 -42 17 -76 17 -133 -1z m114 -251 c-12 -48 -97 -58 -111 -13 -10
29 23 60 72 68 32 6 39 4 41 -12 2 -11 1 -30 -2 -43z"/>
<path d="M1866 4072 c-4 -7 -89 -269 -186 -574 -8 -28 -8 -28 35 -28 l44 0 66
208 c118 368 124 387 122 388 -11 8 -77 13 -81 6z"/>
<path d="M2186 3964 l3 -95 -30 25 c-44 37 -98 35 -143 -5 -41 -35 -56 -79
-56 -162 0 -66 18 -116 54 -152 35 -35 103 -35 145 0 l30 26 3 -23 c2 -19 10
-24 41 -26 l37 -3 0 255 0 256 -43 0 -43 0 2 -96z m-29 -138 c25 -22 28 -30
28 -90 0 -74 -22 -108 -70 -108 -47 0 -60 24 -60 108 0 68 3 78 24 95 30 25
44 24 78 -5z"/>
<path d="M2364 4035 c-15 -23 -15 -27 0 -50 19 -29 56 -33 80 -9 21 21 20 47
-2 67 -27 24 -59 21 -78 -8z"/>
<path d="M1595 3936 c-11 -7 -64 -37 -119 -67 -157 -85 -154 -108 25 -199 127
-65 143 -66 137 -14 -3 25 -14 35 -80 69 -42 22 -77 44 -78 49 -1 5 34 27 77
50 77 41 78 43 81 84 3 45 -6 52 -43 28z"/>
<path d="M2917 3923 c-4 -3 -7 -19 -7 -34 0 -32 24 -53 98 -88 29 -14 52 -27
52 -30 0 -4 -34 -24 -75 -46 -73 -39 -75 -41 -75 -77 0 -21 3 -38 8 -38 4 1
61 29 127 63 111 57 120 64 123 93 4 38 0 42 -132 109 -114 60 -110 58 -119
48z"/>
<path d="M2527 3913 c-11 -3 -16 -11 -13 -21 3 -9 30 -89 59 -177 l54 -160 49
0 49 0 57 165 c31 91 57 173 57 183 1 13 -7 17 -32 17 -18 0 -38 -5 -44 -11
-7 -7 -26 -65 -44 -130 -18 -66 -36 -119 -39 -119 -4 0 -24 59 -45 130 -37
123 -40 130 -65 129 -14 -1 -33 -3 -43 -6z"/>
<path d="M2360 3730 l0 -180 45 0 45 0 0 180 0 180 -45 0 -45 0 0 -180z"/>
</g>
</svg>
