<?xml version="1.0" standalone="no"?>
<!DOCTYPE svg PUBLIC "-//W3C//DTD SVG 20010904//EN"
 "http://www.w3.org/TR/2001/REC-SVG-20010904/DTD/svg10.dtd">
<svg version="1.0" xmlns="http://www.w3.org/2000/svg"
 width="1024.000000pt" height="1024.000000pt" viewBox="0 0 1024.000000 1024.000000"
 preserveAspectRatio="xMidYMid meet">

<g transform="translate(0.000000,1024.000000) scale(0.100000,-0.100000)"
fill="#000000" stroke="none">
<path d="M1103 8746 c-64 -21 -124 -59 -175 -114 -57 -61 -83 -110 -97 -187
-9 -44 -11 -753 -9 -2690 l3 -2630 27 -57 c53 -113 150 -189 263 -206 42 -6
3720 -8 3923 -2 18 0 32 41 21 62 -9 17 -122 18 -1977 20 -1906 3 -1968 4
-2002 22 -64 34 -106 74 -136 128 l-29 53 -3 2318 -2 2317 2839 0 2839 0 4
-22 c2 -13 5 -120 7 -238 1 -118 5 -218 7 -222 7 -10 61 -10 68 0 10 17 17
1038 7 1102 -23 140 -115 259 -251 324 l-65 31 -2610 2 c-2140 1 -2618 -1
-2652 -11z m5287 -115 c68 -36 106 -67 140 -116 57 -82 60 -105 62 -384 l2
-256 -820 0 c-450 0 -1727 1 -2836 3 l-2018 2 0 265 c0 290 3 306 63 392 34
48 84 84 148 107 39 14 317 15 2629 13 l2585 -2 45 -24z"/>
<path d="M1364 8411 c-119 -54 -140 -226 -36 -300 55 -39 149 -45 208 -13 57
30 101 122 88 179 -29 123 -148 185 -260 134z"/>
<path d="M1853 8405 c-105 -63 -121 -199 -32 -279 20 -19 54 -39 75 -45 79
-22 189 31 220 105 17 40 18 107 3 137 -17 32 -60 77 -91 93 -44 23 -126 18
-175 -11z"/>
<path d="M2385 8410 c-160 -81 -124 -300 54 -334 89 -16 193 58 206 148 10 63
-16 128 -68 169 -49 40 -132 48 -192 17z"/>
<path d="M7535 7484 c-251 -38 -448 -122 -624 -266 -41 -33 -101 -72 -135 -85
-162 -66 -242 -125 -291 -214 -25 -46 -30 -68 -33 -145 -4 -83 -2 -97 23 -153
26 -57 68 -105 137 -156 27 -20 27 -22 37 -187 6 -91 15 -187 22 -212 11 -45
11 -46 -74 -223 -47 -98 -90 -193 -96 -212 -36 -110 19 -190 143 -207 l43 -6
7 -77 c18 -223 102 -365 257 -439 88 -42 171 -56 278 -49 49 4 95 9 104 13 12
4 27 -19 66 -102 28 -59 50 -108 49 -110 -2 -1 -52 -20 -113 -43 -210 -79
-392 -197 -533 -346 -151 -159 -242 -308 -460 -755 l-144 -294 -19 38 c-47 97
-152 237 -240 319 l-91 86 10 333 c13 475 3 545 -91 622 -51 42 -361 230 -425
259 -39 17 -66 20 -152 19 -58 -1 -148 -6 -200 -12 -172 -21 -228 -37 -325
-93 -86 -50 -94 -52 -169 -54 -89 -3 -116 -18 -116 -66 0 -36 35 -70 138 -133
42 -25 96 -62 119 -81 l43 -35 0 -131 c0 -157 10 -195 66 -246 43 -40 108 -60
154 -48 17 4 22 -3 36 -51 24 -82 87 -229 130 -303 21 -35 70 -95 110 -134 71
-69 88 -94 137 -205 14 -30 102 -228 197 -440 161 -361 323 -726 407 -919 79
-181 159 -259 312 -305 143 -42 295 0 438 121 63 54 66 55 59 27 -9 -41 -36
-308 -31 -313 2 -2 22 -6 44 -8 49 -6 42 -29 76 267 25 215 41 302 86 473 l21
77 84 0 c95 0 144 15 168 53 9 13 45 91 80 173 35 82 116 268 181 413 87 197
115 269 108 280 -14 23 -56 25 -75 4 -19 -21 -193 -402 -285 -623 -93 -223
-70 -203 -226 -198 -116 4 -144 8 -227 37 -114 39 -245 107 -400 208 -184 121
-232 161 -224 186 9 31 457 924 517 1032 73 130 160 255 234 335 221 239 578
395 1028 449 331 40 489 51 569 41 423 -54 762 -309 907 -684 93 -239 179
-777 183 -1135 l1 -133 -50 -20 c-61 -25 -287 -89 -292 -84 -3 2 5 114 16 248
39 450 51 613 51 665 0 49 -2 53 -27 59 -50 13 -57 -10 -77 -257 -9 -123 -51
-582 -92 -1019 -41 -437 -74 -806 -74 -820 0 -24 3 -25 44 -22 53 5 42 -57 96
542 23 250 43 464 45 475 3 17 23 25 112 47 59 14 109 25 110 24 3 -3 -43
-819 -55 -984 -4 -57 -6 -105 -3 -108 8 -7 65 -4 79 5 15 9 20 76 52 671 12
223 24 415 26 427 3 15 21 31 52 47 82 42 87 52 85 175 -5 279 -50 676 -104
922 -74 342 -186 560 -380 743 -155 146 -403 273 -591 301 -26 4 -52 12 -57
19 -28 34 -95 247 -126 396 -8 41 -17 85 -20 97 -4 17 9 38 51 85 79 88 202
277 279 429 231 454 224 880 -20 1255 -56 85 -207 231 -298 288 -235 145 -549
205 -842 160z m-499 -1061 c69 -192 107 -266 171 -333 35 -37 77 -73 93 -80
39 -16 53 -4 106 91 43 80 69 104 126 120 72 19 160 -27 199 -103 63 -124 16
-297 -125 -456 -54 -61 -55 -64 -42 -90 50 -96 215 -246 332 -302 108 -52 278
-77 348 -50 23 8 26 7 32 -18 24 -114 69 -274 94 -337 17 -42 30 -78 30 -80 0
-3 -22 -5 -50 -5 -90 0 -744 -78 -801 -95 -16 -5 -55 68 -120 225 -39 94 -57
105 -114 70 -69 -43 -226 -35 -327 16 -128 65 -208 228 -208 424 0 80 -15 96
-95 102 -71 6 -95 19 -95 51 0 11 38 104 84 206 113 252 111 246 90 329 -21
82 -26 304 -7 323 7 7 35 11 70 10 32 -1 76 5 98 13 74 27 91 22 111 -31z
m-1660 -1678 c125 -70 319 -193 341 -217 43 -46 54 -101 54 -273 0 -88 -5
-225 -10 -305 -6 -80 -11 -182 -12 -227 l-2 -83 110 -114 c134 -138 212 -249
266 -378 l15 -37 -69 -143 c-87 -180 -88 -194 -16 -261 65 -62 314 -228 433
-289 90 -47 280 -118 314 -118 32 0 32 -17 -1 -112 -52 -154 -114 -263 -194
-344 -80 -81 -125 -108 -211 -123 -108 -20 -210 14 -289 96 -43 44 -67 86
-129 228 -27 61 -99 225 -161 365 -237 538 -320 721 -406 898 -79 165 -95 190
-157 255 -117 121 -170 220 -238 445 -14 48 -33 95 -42 105 -21 24 -49 21 -68
-8 -21 -33 -54 -32 -89 3 -39 39 -44 59 -49 193 -4 117 -3 120 21 139 57 45
135 34 175 -24 56 -81 167 -224 234 -301 81 -92 109 -105 138 -63 9 12 16 25
16 29 0 4 -27 38 -59 77 -32 39 -73 91 -90 116 -28 41 -30 46 -13 46 28 0 115
-32 226 -84 54 -25 110 -46 124 -46 44 0 108 46 132 94 29 60 16 111 -41 159
-36 31 -231 124 -416 198 -132 53 -236 62 -340 29 -34 -10 -85 -22 -113 -26
l-52 -7 4 29 c2 23 12 34 48 51 89 44 410 89 511 72 20 -3 67 -23 105 -44z
m-225 -201 c30 -8 119 -43 198 -76 110 -47 154 -71 189 -104 41 -40 48 -64 18
-64 -8 0 -60 20 -117 46 -57 25 -136 51 -174 59 -39 8 -83 18 -98 24 -26 10
-127 108 -127 123 0 13 52 9 111 -8z"/>
<path d="M5997 2582 c-29 -32 -21 -69 21 -91 26 -14 56 -2 73 30 9 17 7 27 -8
48 -25 32 -63 38 -86 13z"/>
<path d="M3752 7418 l-53 -10 3 -275 3 -275 33 -29 c33 -30 61 -35 121 -23 30
6 32 9 29 42 -3 31 -7 37 -35 44 l-33 9 0 264 c0 146 -3 264 -7 264 -5 -1 -32
-6 -61 -11z"/>
<path d="M1500 7408 c-82 -22 -166 -111 -191 -201 -6 -23 -11 -75 -11 -116 1
-97 41 -184 109 -236 60 -46 110 -59 206 -52 62 4 87 11 117 31 37 24 39 28
29 53 -19 51 -27 54 -70 33 -54 -28 -136 -27 -180 3 -52 34 -81 102 -81 190 0
86 23 142 74 179 45 32 134 32 177 0 17 -12 33 -22 35 -22 3 0 18 18 33 41
l27 41 -25 19 c-54 42 -168 59 -249 37z"/>
<path d="M1940 7260 c-24 -12 -53 -29 -63 -38 -54 -48 -80 -168 -57 -262 16
-66 76 -133 135 -149 148 -41 263 38 281 192 19 159 -55 263 -194 273 -44 4
-67 0 -102 -16z m133 -90 c35 -28 51 -81 44 -151 -6 -68 -31 -115 -68 -128
-65 -23 -100 18 -107 125 -5 84 0 111 29 147 25 33 66 35 102 7z"/>
<path d="M2515 7273 c-11 -3 -35 -18 -55 -34 l-35 -30 -5 28 c-4 22 -11 29
-34 31 -16 2 -39 1 -53 -3 l-24 -6 2 -211 c1 -117 3 -218 6 -225 3 -9 25 -13
65 -13 l59 0 -3 156 -3 156 33 29 c39 35 71 37 100 6 21 -22 22 -33 22 -185
l0 -162 60 0 60 0 0 173 c0 148 -3 178 -20 214 -30 67 -96 96 -175 76z"/>
<path d="M2894 7269 c-18 -5 -46 -25 -63 -44 -24 -28 -31 -45 -31 -79 0 -67
32 -105 120 -143 41 -18 81 -42 89 -53 13 -19 12 -23 -7 -43 -32 -31 -88 -25
-174 21 -4 2 -14 -11 -23 -29 -16 -31 -16 -32 7 -55 29 -30 117 -49 178 -40
94 14 148 77 137 159 -8 59 -29 82 -104 111 -88 35 -113 52 -113 76 0 39 79
54 134 25 39 -20 43 -19 61 15 14 27 14 30 -7 50 -40 37 -132 50 -204 29z"/>
<path d="M3320 7265 c-103 -47 -152 -172 -120 -306 37 -154 226 -212 347 -106
53 46 73 98 73 188 0 94 -32 167 -91 206 -50 33 -156 42 -209 18z m132 -86
c48 -26 66 -165 31 -237 -37 -75 -113 -79 -147 -7 -18 38 -21 150 -5 192 22
59 69 80 121 52z"/>
<path d="M4042 7265 c-24 -7 -52 -21 -62 -30 -18 -16 -18 -19 -3 -51 19 -39
23 -40 64 -18 49 25 108 23 130 -5 11 -13 19 -33 19 -46 0 -20 -6 -23 -59 -28
-127 -11 -191 -66 -191 -163 0 -47 3 -55 35 -83 20 -17 47 -34 61 -37 41 -10
95 3 125 32 16 15 30 26 31 23 2 -2 8 -13 14 -24 8 -14 23 -21 55 -23 l44 -3
-3 178 c-4 207 -12 233 -82 270 -49 26 -111 29 -178 8z m144 -299 c-8 -53 -34
-76 -83 -76 -26 0 -36 6 -44 24 -24 52 7 92 81 106 47 9 54 0 46 -54z"/>
<path d="M3927 6233 c-17 -4 -18 -19 -15 -246 3 -261 7 -278 58 -295 28 -10
97 -4 105 9 11 17 -7 59 -25 59 -10 0 -20 10 -24 23 -3 12 -6 120 -6 240 l0
217 -37 -1 c-21 -1 -46 -3 -56 -6z"/>
<path d="M4753 6233 c-10 -3 -13 -60 -13 -236 0 -201 2 -237 18 -267 19 -38
46 -48 115 -41 36 3 38 5 35 34 -2 24 -9 33 -28 37 l-25 6 -3 237 -2 237 -43
-1 c-23 0 -48 -3 -54 -6z"/>
<path d="M6040 6221 c-48 -10 -72 -24 -108 -65 -48 -55 -67 -125 -67 -246 0
-122 19 -191 68 -247 82 -93 227 -84 302 17 58 78 77 265 40 383 -24 77 -83
144 -133 153 -20 3 -44 7 -52 9 -8 1 -31 -1 -50 -4z m95 -95 c77 -77 74 -349
-5 -427 -52 -52 -113 -28 -147 59 -23 59 -25 246 -4 306 29 82 105 113 156 62z"/>
<path d="M1333 6187 c-13 -18 -23 -36 -23 -40 0 -6 188 -160 229 -187 22 -15
19 -18 -108 -104 -72 -49 -131 -91 -131 -94 0 -12 43 -72 52 -72 11 0 41 21
224 156 107 79 131 105 118 126 -7 11 -309 237 -327 243 -6 3 -22 -10 -34 -28z"/>
<path d="M2047 6097 c-89 -28 -146 -133 -132 -243 7 -61 36 -109 84 -141 46
-31 150 -32 199 -3 28 17 31 24 26 47 -9 39 -14 45 -27 34 -18 -14 -83 -24
-113 -17 -28 7 -63 72 -64 118 0 42 28 104 55 118 23 12 80 10 116 -5 12 -4
20 3 29 25 11 27 11 32 -6 45 -22 17 -80 35 -109 34 -11 0 -37 -6 -58 -12z"/>
<path d="M2372 6089 c-102 -51 -141 -209 -79 -311 43 -71 112 -102 198 -88 55
8 80 21 113 60 75 90 54 272 -38 329 -54 34 -139 38 -194 10z m139 -85 c21
-23 24 -35 24 -109 0 -75 -3 -86 -24 -109 -39 -42 -91 -34 -118 18 -32 61 -13
202 29 219 32 13 66 6 89 -19z"/>
<path d="M2875 6094 c-16 -8 -38 -23 -47 -31 -17 -15 -18 -14 -18 12 0 27 -1
27 -42 21 -24 -4 -45 -10 -48 -14 -3 -4 -4 -94 -2 -199 l3 -193 49 0 50 0 0
130 c0 167 14 200 85 200 13 0 27 -6 32 -12 4 -7 10 -80 13 -163 l5 -150 50 0
50 0 3 148 c2 130 0 153 -17 193 -30 67 -101 92 -166 58z"/>
<path d="M3201 6092 c-47 -23 -75 -64 -74 -107 2 -52 28 -84 91 -111 75 -32
84 -37 96 -58 9 -14 6 -21 -13 -37 -30 -24 -57 -24 -106 1 -22 11 -42 20 -46
20 -10 0 -32 -58 -25 -68 26 -42 176 -57 232 -23 44 27 70 96 55 144 -15 45
-23 51 -106 84 -37 16 -73 36 -79 45 -26 42 64 68 117 33 25 -16 26 -16 42 9
22 33 15 49 -28 69 -45 22 -113 22 -156 -1z"/>
<path d="M3564 6091 c-69 -31 -104 -100 -104 -204 0 -82 28 -139 83 -171 110
-62 230 -29 278 79 37 82 18 218 -39 268 -52 46 -150 59 -218 28z m121 -67
c28 -11 45 -60 45 -133 0 -60 -3 -74 -26 -100 -28 -34 -67 -41 -98 -18 -27 20
-46 105 -35 160 15 84 53 114 114 91z"/>
<path d="M4250 6100 c-43 -10 -102 -74 -118 -128 -33 -108 7 -225 91 -268 39
-21 144 -20 190 2 39 18 46 38 24 68 -11 16 -15 16 -49 1 -44 -18 -68 -19
-102 -4 -23 11 -56 62 -56 88 0 6 43 11 118 13 l117 3 3 55 c3 74 -26 127 -88
158 -46 23 -72 25 -130 12z m103 -88 c9 -10 20 -33 23 -50 l7 -32 -77 0 c-73
0 -76 1 -76 24 0 13 9 35 21 50 25 32 77 36 102 8z"/>
<path d="M5075 6095 c-111 -39 -158 -186 -97 -305 15 -30 39 -62 53 -73 39
-28 101 -39 155 -27 62 14 90 35 122 89 23 39 27 57 26 121 0 84 -15 122 -64
163 -54 45 -124 57 -195 32z m129 -98 c30 -41 30 -163 0 -204 -30 -40 -84 -44
-112 -8 -40 51 -40 169 0 220 28 36 82 32 112 -8z"/>
<path d="M5522 6101 c-50 -9 -96 -49 -113 -98 -14 -43 -6 -73 28 -113 24 -28
25 -33 10 -41 -50 -28 -59 -62 -26 -98 l21 -22 -26 -20 c-14 -11 -31 -38 -37
-59 -10 -33 -9 -43 5 -64 51 -79 248 -87 332 -14 44 39 60 94 41 141 -18 42
-48 54 -156 60 -88 6 -119 21 -107 52 5 13 14 15 46 10 55 -9 143 18 170 53
18 22 21 37 18 85 l-4 57 38 0 c37 0 38 1 38 35 0 39 -10 42 -69 25 -26 -7
-48 -6 -85 5 -53 16 -58 16 -124 6z m90 -78 c21 -19 25 -92 6 -111 -17 -17
-68 -15 -90 5 -23 20 -24 80 -1 105 20 22 61 23 85 1z m42 -339 c25 -10 19
-50 -11 -74 -24 -19 -37 -21 -86 -17 -32 3 -64 11 -72 17 -20 17 -19 57 3 69
19 11 141 15 166 5z"/>
<path d="M4563 5800 c-25 -10 -38 -48 -28 -80 10 -30 50 -43 83 -28 22 11 28
21 30 54 3 35 0 42 -23 52 -30 14 -32 14 -62 2z"/>
<path d="M1657 5219 c-26 -24 -208 -344 -313 -550 -63 -124 -67 -157 -25 -200
l29 -29 350 0 c218 0 360 4 379 10 32 11 53 45 53 83 0 29 -46 124 -145 302
-43 77 -107 192 -142 255 -35 63 -70 121 -77 128 -7 7 -28 15 -47 18 -28 5
-41 1 -62 -17z m130 -222 c40 -72 88 -159 106 -192 19 -33 59 -106 90 -162
l55 -103 -323 0 c-306 0 -324 1 -317 18 10 24 102 192 192 352 42 74 85 154
95 178 10 23 21 42 24 42 3 0 39 -60 78 -133z"/>
<path d="M1703 5078 c-10 -12 -126 -217 -180 -316 -13 -24 -20 -49 -17 -55 4
-7 3 -9 -1 -5 -10 10 -65 -84 -65 -112 0 -11 -6 -20 -12 -20 -9 0 -9 -3 1 -9
8 -5 118 -8 245 -6 127 2 252 4 279 4 53 1 60 14 30 59 -10 15 -23 36 -30 47
-6 11 -16 19 -23 17 -6 -1 -9 2 -5 8 10 16 -42 123 -56 114 -8 -4 -9 -3 -5 4
9 15 -78 165 -89 155 -4 -5 -5 -3 -1 4 3 6 -6 33 -20 60 -34 62 -39 66 -51 51z
m-42 -111 c-10 -9 -11 -8 -5 6 3 10 9 15 12 12 3 -3 0 -11 -7 -18z m83 -19
c-3 -4 6 -27 20 -51 15 -24 26 -50 26 -58 -1 -8 -14 12 -31 44 -28 55 -59 76
-59 40 0 -10 -9 -33 -21 -52 -32 -53 -21 -65 59 -58 42 4 60 3 47 -3 -11 -5
-44 -9 -73 -9 -65 -1 -73 12 -44 77 11 26 23 55 26 64 3 12 14 17 30 16 13 -1
22 -6 20 -10z m19 -259 c-14 -22 -28 -38 -30 -35 -7 7 39 86 48 80 5 -3 -3
-23 -18 -45z m86 9 c22 -24 41 -52 41 -63 l-1 -20 -11 20 c-6 11 -27 39 -46
63 -19 23 -32 42 -29 42 3 0 24 -19 46 -42z m-339 -49 c0 -5 -4 -9 -8 -9 -5 0
-9 7 -9 15 0 8 4 12 9 9 4 -3 8 -9 8 -15z m327 -30 c29 13 33 14 33 2 0 -5
-13 -12 -30 -16 -34 -7 -103 12 -95 26 4 5 20 2 37 -7 24 -12 36 -14 55 -5z"/>
<path d="M2386 5082 c-7 -11 -2 -519 5 -527 5 -4 245 -9 317 -6 9 1 12 14 10
43 l-3 43 -105 2 -105 2 -3 66 c-2 48 1 65 10 66 7 0 48 0 91 -1 l78 -1 -3 43
-3 43 -85 0 -85 0 0 70 0 70 103 3 102 3 0 44 0 45 -159 0 c-88 0 -162 -3
-165 -8z"/>
<path d="M2955 4948 c-11 -6 -33 -22 -49 -37 -16 -14 -26 -20 -22 -13 4 7 4
21 1 32 -5 17 -14 20 -53 17 l-47 -3 -2 -184 c-2 -102 1 -191 5 -197 4 -7 30
-14 58 -15 l49 -3 -3 116 c-5 157 11 189 93 189 32 0 34 2 40 44 4 25 4 49 0
55 -8 14 -44 14 -70 -1z"/>
<path d="M3249 4943 c-14 -9 -33 -28 -42 -42 l-16 -26 -1 32 c0 40 -6 43 -58
36 l-42 -6 0 -192 0 -193 45 -6 c63 -10 68 -4 60 64 -4 32 -4 88 0 124 9 83
35 116 93 116 40 0 40 0 47 46 5 34 3 49 -7 55 -20 13 -50 10 -79 -8z"/>
<path d="M3480 4938 c-143 -73 -147 -312 -7 -385 41 -21 143 -21 183 0 68 35
104 105 104 200 0 156 -146 252 -280 185z m121 -68 c72 -39 60 -244 -15 -258
-33 -7 -66 8 -80 36 -61 121 2 271 95 222z"/>
<path d="M4010 4953 c-8 -3 -30 -19 -47 -36 l-33 -31 0 33 c0 32 -1 33 -31 27
-17 -3 -40 -6 -50 -6 -18 0 -19 -11 -19 -194 l0 -194 51 -4 c28 -1 53 -1 55 1
2 2 4 58 4 124 0 103 3 123 20 147 16 23 30 30 63 32 41 3 42 4 51 46 5 23 7
44 5 46 -8 9 -55 15 -69 9z"/>
<path d="M3607 4052 c-23 -25 -21 -58 3 -82 27 -27 56 -25 86 5 25 26 26 52 2
83 -16 18 -72 15 -91 -6z"/>
<path d="M1493 3904 c-21 -7 -44 -22 -52 -34 -13 -19 -32 -28 -30 -12 6 37 -2
43 -47 40 l-45 -3 0 -200 0 -200 51 -3 50 -3 0 131 c0 132 6 162 39 187 25 19
69 16 81 -6 5 -11 10 -84 10 -165 l0 -146 55 0 55 0 0 140 c0 136 1 142 25
165 30 31 69 32 89 3 13 -18 16 -52 16 -166 l0 -143 53 3 52 3 0 160 c0 173
-9 207 -59 241 -47 30 -138 14 -176 -31 -12 -14 -16 -13 -44 13 -38 36 -72 43
-123 26z"/>
<path d="M3953 3910 c-97 -14 -157 -95 -157 -210 0 -80 28 -147 75 -181 27
-19 49 -25 109 -27 112 -4 173 32 137 82 -14 19 -16 19 -56 2 -58 -23 -114 -8
-141 37 -34 55 -31 56 103 59 l122 3 3 29 c15 131 -72 223 -195 206z m72 -95
c16 -15 25 -36 25 -55 l0 -30 -69 0 c-39 0 -72 4 -76 10 -9 14 20 76 42 89 29
17 52 13 78 -14z"/>
<path d="M2065 3888 c-127 -74 -122 -318 8 -382 52 -25 144 -23 197 4 22 11
40 23 40 26 0 3 -7 18 -15 34 -14 28 -16 28 -42 14 -33 -16 -96 -18 -124 -4
-18 10 -49 59 -49 79 0 6 48 11 123 13 l122 3 3 37 c5 56 -15 116 -52 156 -32
34 -38 36 -102 40 -58 2 -76 -1 -109 -20z m134 -65 c12 -10 24 -35 28 -55 l6
-38 -78 0 -77 0 6 33 c7 36 47 77 75 77 11 0 28 -8 40 -17z"/>
<path d="M2550 3894 c-14 -10 -30 -23 -36 -31 -10 -11 -13 -9 -18 12 -6 22
-12 25 -51 25 l-45 0 2 -202 3 -203 50 0 50 0 -3 131 c-4 129 -4 131 23 162
32 38 78 44 95 13 5 -11 10 -75 10 -143 0 -167 1 -168 61 -168 l49 0 0 153 c0
170 -9 217 -47 247 -32 25 -108 27 -143 4z"/>
<path d="M2881 3893 c-38 -19 -71 -66 -71 -101 0 -58 40 -97 135 -133 59 -22
79 -43 64 -70 -15 -30 -62 -32 -120 -8 -51 22 -52 22 -66 3 -38 -52 20 -94
132 -94 109 0 159 40 157 126 -1 73 -24 95 -136 134 -58 19 -76 40 -57 64 17
21 86 21 125 1 32 -17 40 -12 53 34 6 24 -7 38 -52 53 -39 12 -130 8 -164 -9z"/>
<path d="M3233 3890 c-46 -21 -49 -26 -31 -65 13 -29 17 -30 65 -10 68 28 120
14 125 -35 3 -21 -2 -26 -37 -33 -95 -20 -121 -31 -152 -62 -27 -27 -33 -41
-33 -74 0 -55 22 -95 60 -111 39 -16 124 -8 149 14 18 17 20 17 41 -4 15 -15
31 -20 53 -18 l32 3 -4 160 c-3 177 -10 203 -64 235 -43 27 -146 27 -204 0z
m162 -211 c11 -17 -5 -79 -26 -100 -27 -27 -65 -24 -85 6 -22 33 -15 55 25 82
36 24 76 30 86 12z"/>
<path d="M3610 3893 c-1 -5 0 -109 0 -233 1 -256 -2 -266 -68 -272 -33 -3 -37
-6 -40 -32 -4 -35 10 -46 63 -46 54 0 106 29 127 71 16 30 18 65 18 277 l0
242 -50 0 c-27 0 -50 -3 -50 -7z"/>
</g>
</svg>
