<?xml version="1.0" standalone="no"?>
<!DOCTYPE svg PUBLIC "-//W3C//DTD SVG 20010904//EN"
 "http://www.w3.org/TR/2001/REC-SVG-20010904/DTD/svg10.dtd">
<svg version="1.0" xmlns="http://www.w3.org/2000/svg"
 width="1024.000000pt" height="1024.000000pt" viewBox="0 0 1024.000000 1024.000000"
 preserveAspectRatio="xMidYMid meet">

<g transform="translate(0.000000,1024.000000) scale(0.100000,-0.100000)"
fill="#000000" stroke="none">
<path d="M1838 7253 c-2 -5 -1 -131 2 -281 l5 -274 29 -24 c23 -20 37 -24 75
-22 46 3 46 3 49 42 3 37 2 38 -22 32 -19 -5 -28 -1 -36 13 -6 12 -10 116 -10
270 l0 251 -44 0 c-25 0 -46 -3 -48 -7z"/>
<path d="M3232 6958 l3 -303 38 -3 c35 -3 37 -2 37 27 0 17 5 31 10 31 6 0 10
-5 10 -10 0 -19 65 -50 103 -50 109 0 175 91 165 229 -9 117 -66 191 -150 191
-47 0 -81 -13 -107 -41 l-21 -23 0 127 0 127 -45 0 -45 0 2 -302z m216 32 c26
0 52 -63 52 -126 0 -82 -29 -128 -83 -132 -49 -4 -82 30 -90 96 -12 93 34 182
87 168 12 -3 27 -6 34 -6z"/>
<path d="M3680 6993 c0 -249 1 -270 20 -300 21 -35 48 -46 101 -41 32 3 34 6
37 42 3 35 1 38 -17 33 -48 -12 -51 6 -51 279 l0 254 -45 0 -45 0 0 -267z"/>
<path d="M1079 7047 c-62 -33 -92 -93 -91 -186 1 -127 57 -197 165 -208 65 -7
119 9 146 43 22 28 20 44 -10 62 -17 11 -25 10 -53 -8 -46 -28 -82 -26 -116 8
-52 52 -50 180 3 217 33 23 77 19 108 -11 l28 -26 31 22 c29 20 30 24 17 44
-44 67 -145 86 -228 43z"/>
<path d="M1476 7060 c-71 -23 -116 -100 -116 -200 0 -128 62 -201 176 -208 86
-6 144 22 181 86 23 39 28 58 28 122 0 86 -17 124 -77 173 -30 24 -48 30 -100
33 -35 2 -76 -1 -92 -6z m134 -90 c49 -53 51 -154 3 -210 -42 -51 -113 -37
-139 25 -30 73 -7 176 46 202 39 20 60 16 90 -17z"/>
<path d="M2161 7057 c-112 -36 -160 -217 -87 -327 72 -109 256 -106 321 4 21
36 25 55 25 125 0 89 -10 119 -57 163 -50 47 -123 60 -202 35z m108 -72 c41
-21 55 -63 52 -157 -3 -111 -141 -135 -171 -30 -23 85 0 171 53 192 31 12 34
12 66 -5z"/>
<path d="M2660 7063 c-8 -3 -25 -15 -37 -26 l-23 -20 0 21 c0 20 -5 22 -47 22
l-48 0 3 -205 3 -205 44 0 44 0 3 145 c3 134 5 146 26 167 15 16 34 23 61 23
37 0 40 2 46 34 9 45 -22 63 -75 44z"/>
<path d="M2842 7054 c-42 -29 -19 -96 33 -96 49 0 69 47 39 90 -18 26 -41 28
-72 6z"/>
<path d="M4433 7051 c-103 -47 -136 -227 -61 -334 47 -66 171 -89 249 -45 50
28 54 42 18 72 -30 25 -30 25 -49 6 -26 -26 -89 -26 -122 0 -25 19 -55 76 -46
85 2 3 65 7 139 9 l134 4 -2 51 c-3 70 -34 126 -83 151 -50 25 -122 26 -177 1z
m148 -80 c16 -16 29 -39 29 -50 0 -20 -5 -21 -95 -21 -60 0 -95 4 -95 10 0 20
30 69 47 79 35 20 83 13 114 -18z"/>
<path d="M4812 7054 c-43 -30 -16 -94 40 -94 31 0 51 21 51 57 0 47 -49 67
-91 37z"/>
<path d="M3912 6898 c5 -182 14 -216 68 -238 50 -21 119 -8 152 29 27 30 28
30 28 9 0 -38 14 -50 56 -46 l39 3 1 203 1 202 -48 0 -48 0 -3 -146 c-3 -139
-4 -147 -27 -165 -30 -25 -76 -24 -101 1 -18 18 -20 33 -20 165 l0 145 -51 0
-51 0 4 -162z"/>
<path d="M2851 6741 c-33 -33 -8 -91 38 -91 34 0 51 17 51 51 0 54 -52 77 -89
40z"/>
<path d="M5973 6730 l-23 -9 0 -1539 0 -1539 31 -7 c41 -8 3032 -8 3082 0 l37
7 0 1536 c0 1182 -3 1540 -12 1549 -15 15 -3079 16 -3115 2z m3047 -1540 l0
-1460 -1495 0 -1495 0 0 1460 0 1460 1495 0 1495 0 0 -1460z"/>
<path d="M8508 5453 c-35 -14 -38 -19 -38 -54 0 -37 -2 -39 -30 -39 -28 0 -30
-3 -30 -35 0 -32 2 -35 30 -35 l30 0 0 -105 c0 -122 12 -157 61 -174 68 -23
108 -8 101 38 -4 26 -9 31 -33 31 -15 0 -30 3 -32 8 -3 4 -8 51 -12 105 l-7
97 41 0 c40 0 41 1 41 35 0 33 -2 35 -35 35 l-35 0 0 55 c0 60 1 60 -52 38z"/>
<path d="M7523 5449 c-30 -9 -33 -13 -33 -49 0 -36 -3 -40 -25 -40 -22 0 -25
-4 -25 -35 0 -31 3 -35 25 -35 l25 0 0 -105 c0 -125 12 -158 65 -175 36 -12
90 -6 101 11 3 6 3 21 0 34 -5 18 -14 25 -39 27 l-32 3 -3 103 -3 102 36 0
c33 0 35 2 35 35 0 33 -2 35 -35 35 l-35 0 0 50 c0 54 -2 55 -57 39z"/>
<path d="M6475 5356 c-115 -50 -137 -238 -39 -315 63 -50 152 -48 211 4 l28
24 -27 27 -26 27 -27 -22 c-15 -11 -40 -21 -55 -21 -81 0 -103 167 -27 210 25
14 30 13 67 -7 l40 -22 24 24 24 24 -22 20 c-44 41 -114 52 -171 27z"/>
<path d="M6780 5348 c-128 -65 -119 -282 14 -333 152 -58 282 110 204 265 -26
50 -89 90 -143 90 -17 0 -51 -10 -75 -22z m104 -59 c34 -16 50 -59 44 -120 -6
-59 -32 -91 -73 -91 -41 0 -67 32 -73 91 -5 59 10 104 41 119 29 14 32 14 61
1z"/>
<path d="M7220 5359 c-13 -5 -33 -18 -44 -27 -18 -16 -19 -16 -14 6 6 20 3 22
-36 22 l-42 0 -2 -175 -2 -175 45 0 45 0 0 120 c0 107 2 122 20 140 27 27 75
26 94 -2 12 -17 16 -50 16 -141 l0 -118 40 3 c22 2 40 6 40 11 0 4 0 68 0 142
0 133 0 135 -27 165 -31 35 -90 48 -133 29z"/>
<path d="M7783 5349 c-32 -16 -48 -33 -68 -72 -27 -56 -31 -91 -14 -152 31
-111 174 -157 268 -86 l24 18 -22 32 -23 31 -25 -20 c-26 -20 -66 -26 -98 -14
-14 6 -45 53 -45 69 0 3 49 5 109 5 122 0 126 2 115 71 -9 53 -41 100 -84 121
-46 24 -86 23 -137 -3z m117 -69 c11 -11 20 -29 20 -40 0 -18 -7 -20 -70 -20
-78 0 -85 8 -49 54 25 32 70 35 99 6z"/>
<path d="M8182 5350 c-39 -24 -42 -24 -42 -5 0 11 -11 15 -40 15 l-40 0 0
-175 0 -175 45 0 45 0 0 118 c0 138 10 162 65 162 24 0 38 -6 45 -19 5 -11 10
-74 10 -140 l0 -121 45 0 45 0 0 135 c0 151 -9 184 -60 210 -40 20 -79 19
-118 -5z"/>
<path d="M4820 6686 c0 -33 -7 -52 -25 -74 -30 -36 -35 -85 -7 -75 50 18 121
116 122 171 0 20 -5 22 -45 22 l-45 0 0 -44z"/>
<path d="M2746 6041 c-25 -27 -13 -79 19 -87 35 -9 62 4 67 31 12 59 -48 98
-86 56z"/>
<path d="M3752 5985 c-75 -31 -77 -33 -75 -64 2 -43 8 -47 45 -33 18 6 34 9
37 6 3 -3 7 -100 9 -215 l3 -209 45 0 44 0 0 273 c0 240 -2 274 -15 274 -9 0
-51 -15 -93 -32z"/>
<path d="M4107 6012 c-44 -5 -102 -68 -121 -131 -21 -70 -21 -220 -1 -288 40
-135 181 -173 275 -74 47 49 60 97 60 222 0 120 -10 166 -46 209 -41 48 -99
70 -167 62z m81 -95 c29 -31 46 -124 38 -213 -7 -88 -29 -142 -62 -154 -61
-24 -94 42 -94 188 0 53 4 112 10 131 20 70 68 91 108 48z"/>
<path d="M2640 5903 c-8 -3 -23 -13 -33 -21 -15 -13 -23 -14 -51 -4 -113 41
-226 -27 -226 -137 0 -49 21 -100 47 -115 12 -7 9 -11 -16 -23 -40 -20 -50
-56 -27 -96 16 -29 16 -31 -5 -53 -54 -58 -7 -133 96 -154 127 -26 237 23 252
113 14 92 -28 126 -157 128 -106 1 -135 9 -135 34 0 18 7 20 90 20 70 0 97 4
118 18 62 40 84 122 48 182 -24 42 -25 46 -8 40 6 -3 23 4 36 14 20 15 22 21
12 39 -12 23 -16 24 -41 15z m-97 -114 c34 -65 3 -139 -58 -139 -56 0 -87 59
-65 124 24 72 89 80 123 15z m29 -336 c24 -21 23 -46 -3 -69 -16 -14 -36 -19
-84 -19 -48 0 -68 5 -84 19 -23 21 -27 56 -9 74 19 19 157 16 180 -5z"/>
<path d="M1000 5680 l0 -210 44 0 44 0 4 144 c3 137 5 146 27 170 28 30 71 34
95 10 13 -13 16 -43 16 -170 l0 -155 48 3 47 3 3 147 c2 145 3 147 29 167 32
26 65 27 86 3 13 -15 17 -46 19 -167 l3 -150 48 -3 47 -3 0 161 c0 173 -9 214
-51 244 -35 24 -100 20 -143 -9 -20 -14 -39 -25 -43 -25 -3 0 -18 11 -35 25
-41 35 -111 35 -162 0 -37 -25 -37 -25 -34 -3 3 19 -2 22 -44 24 l-48 3 0
-209z"/>
<path d="M1710 5868 c-51 -26 -63 -57 -34 -89 16 -18 17 -18 45 5 55 47 132
42 145 -9 4 -15 3 -30 -2 -34 -5 -5 -47 -20 -94 -34 -100 -31 -131 -61 -132
-128 -1 -52 27 -90 77 -107 46 -15 82 -9 130 24 l36 24 9 -25 c8 -22 15 -25
59 -25 58 0 74 15 40 41 -23 17 -24 25 -29 158 -5 151 -15 180 -71 208 -40 21
-129 16 -179 -9z m164 -230 c-8 -50 -47 -98 -81 -98 -13 0 -32 9 -44 21 -35
35 -9 78 65 106 59 22 67 18 60 -29z"/>
<path d="M2067 5883 c-3 -5 -3 -98 -2 -208 l3 -200 46 -3 46 -3 0 133 c0 87 5
142 13 158 17 34 60 54 86 41 15 -9 20 -7 25 12 3 12 6 34 6 50 0 24 -3 27
-35 27 -25 0 -44 -8 -61 -25 -14 -14 -27 -25 -29 -25 -3 0 -5 11 -5 25 0 23
-4 25 -44 25 -25 0 -47 -3 -49 -7z"/>
<path d="M2740 5681 l0 -211 46 0 45 0 -3 208 -3 207 -42 3 -43 3 0 -210z"/>
<path d="M2930 5680 l0 -210 45 0 45 0 0 145 c0 142 1 147 25 170 30 31 77 33
105 5 18 -18 20 -33 20 -170 l0 -150 45 0 45 0 0 170 c0 187 -8 222 -56 240
-56 22 -126 8 -163 -31 l-21 -23 0 32 c0 31 -1 32 -45 32 l-45 0 0 -210z"/>
<path d="M3367 5872 c-35 -38 -6 -92 48 -92 36 0 55 20 55 58 0 46 -71 69
-103 34z"/>
<path d="M4410 5596 l0 -296 45 0 45 0 0 107 c0 100 1 105 18 90 45 -41 128
-41 176 1 78 69 84 270 11 351 -32 34 -37 36 -98 36 -55 0 -69 -4 -90 -23
l-25 -24 -4 24 c-2 19 -10 24 -40 26 l-38 3 0 -295z m202 203 c70 -38 57 -236
-17 -255 -63 -16 -112 65 -100 162 10 86 59 124 117 93z"/>
<path d="M4793 5876 c3 -8 28 -51 56 -96 28 -45 51 -84 51 -86 0 -3 -34 -51
-75 -109 -41 -57 -75 -106 -75 -109 0 -3 21 -6 48 -6 l47 0 48 76 c27 42 52
73 55 69 4 -3 25 -37 48 -73 l40 -67 58 -3 58 -3 -75 108 -75 109 21 29 c11
17 42 60 69 98 26 37 48 70 48 72 0 3 -22 5 -49 5 l-49 0 -34 -62 c-19 -35
-39 -62 -44 -62 -5 1 -25 28 -45 60 -35 58 -37 59 -84 62 -39 3 -47 0 -42 -12z"/>
<path d="M5232 5878 c-17 -17 -15 -64 4 -82 45 -45 114 17 79 70 -17 26 -62
33 -83 12z"/>
<path d="M3367 5562 c-35 -39 -13 -92 38 -92 58 0 81 42 49 88 -19 27 -64 29
-87 4z"/>
<path d="M5235 5564 c-6 -2 -9 -20 -7 -40 5 -45 -21 -114 -59 -155 -31 -34
-39 -79 -14 -79 9 0 30 6 48 14 27 11 41 29 72 92 21 44 40 100 43 127 l5 47
-39 -1 c-22 0 -44 -3 -49 -5z"/>
<path d="M2130 4760 l0 -109 -37 25 c-31 21 -47 25 -84 22 -90 -9 -136 -67
-146 -186 -7 -85 9 -143 52 -190 32 -35 36 -37 98 -37 54 0 70 4 89 23 31 28
38 28 38 -3 0 -23 4 -25 45 -25 l45 0 0 295 0 295 -50 0 -50 0 0 -110z m-39
-153 c28 -22 39 -55 39 -121 0 -55 -4 -69 -26 -95 -62 -74 -154 -10 -154 107
0 31 27 94 47 110 21 15 73 15 94 -1z"/>
<path d="M2610 4868 c0 -2 -2 -50 -4 -108 -2 -58 -4 -109 -5 -113 -1 -5 -15 3
-32 17 -37 32 -68 40 -114 32 -81 -16 -135 -103 -135 -220 1 -106 52 -183 128
-193 53 -7 84 1 121 33 l31 26 6 -32 c6 -29 9 -31 45 -28 l39 3 1 290 2 290
-42 3 c-22 2 -41 2 -41 0z m-35 -280 c25 -30 27 -37 23 -106 -3 -68 -6 -76
-33 -98 -33 -26 -80 -31 -107 -10 -25 18 -38 60 -38 117 0 82 33 129 91 129
30 0 43 -6 64 -32z"/>
<path d="M2822 4838 c-22 -22 -14 -67 13 -80 37 -17 75 3 75 40 0 35 -16 52
-50 52 -14 0 -31 -5 -38 -12z"/>
<path d="M4315 4818 c-79 -28 -107 -75 -65 -113 19 -17 21 -17 58 9 48 33 86
33 119 0 45 -45 18 -105 -122 -271 -67 -79 -85 -107 -85 -132 l0 -31 180 0
180 0 0 46 0 46 -115 -4 c-63 -1 -115 -2 -115 -1 0 2 35 47 79 100 121 151
144 207 112 279 -16 35 -29 49 -63 64 -47 21 -116 25 -163 8z"/>
<path d="M4755 4818 c-37 -13 -72 -44 -93 -83 -14 -24 -17 -58 -17 -170 0
-129 2 -144 25 -190 36 -72 79 -98 156 -93 79 5 109 26 141 95 47 103 42 297
-10 375 -26 39 -98 78 -142 77 -16 0 -43 -5 -60 -11z m100 -85 c26 -25 36 -61
42 -148 6 -89 -8 -179 -34 -207 -37 -41 -104 -10 -117 54 -10 50 -7 225 5 255
23 61 69 81 104 46z"/>
<path d="M3763 4700 c-28 -19 -36 -20 -77 -9 -59 15 -129 5 -168 -22 -73 -52
-78 -180 -10 -236 25 -21 25 -23 6 -23 -34 0 -57 -34 -51 -72 4 -21 1 -40 -8
-52 -42 -56 2 -148 80 -166 168 -39 322 56 276 168 -20 47 -58 62 -158 62 -76
0 -93 3 -107 19 -29 32 -11 44 55 36 102 -12 157 21 181 108 9 35 9 54 1 75
-24 61 -26 67 -19 60 4 -3 21 -2 37 4 25 8 30 15 27 37 -4 33 -25 36 -65 11z
m-93 -80 c30 -30 28 -103 -5 -135 -13 -14 -33 -25 -45 -25 -36 0 -70 44 -70
90 0 74 73 117 120 70z m28 -346 c28 -8 40 -50 20 -71 -38 -37 -142 -34 -181
6 -18 17 -19 24 -9 46 11 23 16 25 79 25 38 0 78 -3 91 -6z"/>
<path d="M1155 4691 c-12 -5 -27 -16 -34 -25 -18 -21 -29 -20 -27 2 1 14 -8
18 -47 20 l-47 3 2 -288 3 -288 48 -3 47 -3 0 111 0 112 31 -26 c36 -30 98
-35 155 -11 61 25 95 144 74 255 -11 59 -31 92 -72 123 -29 21 -102 31 -133
18z m89 -111 c40 -69 16 -202 -39 -216 -69 -17 -105 29 -105 133 0 85 30 125
90 121 27 -2 38 -10 54 -38z"/>
<path d="M1502 4681 c-23 -11 -45 -27 -48 -35 -5 -14 21 -76 32 -76 4 0 19 11
35 25 62 52 139 38 139 -24 0 -25 -7 -29 -84 -54 -46 -15 -95 -38 -109 -51
-49 -45 -47 -107 3 -157 39 -39 110 -41 164 -4 39 26 51 31 41 16 -9 -16 37
-41 76 -41 47 0 51 6 30 46 -15 28 -19 60 -20 156 -2 132 -11 163 -57 193 -43
28 -148 31 -202 6z m168 -230 c0 -71 -65 -120 -116 -86 -13 8 -24 23 -24 33 0
42 62 91 118 92 19 0 22 -5 22 -39z"/>
<path d="M3158 4679 c-21 -11 -38 -24 -38 -29 0 -6 -4 -10 -10 -10 -5 0 -10
11 -10 25 0 23 -4 25 -45 25 l-45 0 0 -205 0 -205 50 0 50 0 0 141 c0 77 4
148 10 158 12 24 64 45 93 37 38 -9 47 -45 47 -196 l0 -140 51 0 51 0 -4 168
c-4 182 -9 200 -61 232 -40 25 -91 25 -139 -1z"/>
<path d="M5235 4690 c-12 -4 -27 -15 -34 -24 -18 -22 -31 -20 -31 4 0 17 -7
20 -45 20 l-45 0 2 -287 3 -288 43 -3 42 -3 0 105 c0 64 4 106 10 106 6 0 10
-4 10 -9 0 -17 61 -34 107 -28 86 9 133 86 133 217 0 138 -95 231 -195 190z
m71 -91 c14 -15 20 -40 22 -94 4 -63 1 -80 -18 -110 -18 -29 -27 -35 -56 -35
-65 0 -89 46 -82 157 3 54 8 69 27 84 31 26 83 24 107 -2z"/>
<path d="M2810 4485 l0 -206 46 3 46 3 -1 200 0 200 -46 3 -45 3 0 -206z"/>
<path d="M5479 4673 c5 -10 34 -54 64 -98 l54 -80 -74 -107 -74 -108 50 0 c49
0 51 1 82 48 18 26 40 57 50 70 l18 23 45 -71 46 -70 55 0 c30 0 55 2 55 4 0
3 -31 49 -70 102 -38 54 -70 102 -70 106 0 5 32 51 70 104 l71 95 -62 -3 -63
-3 -30 -52 c-49 -82 -49 -82 -90 -9 l-37 66 -50 0 c-44 0 -49 -2 -40 -17z"/>
<path d="M3926 4648 c-21 -30 -20 -44 4 -68 37 -37 100 -14 100 37 0 49 -76
72 -104 31z"/>
<path d="M3930 4370 c-35 -35 -9 -90 44 -90 39 0 56 15 56 51 0 50 -64 75
-100 39z"/>
<path d="M1239 3670 c0 -3 0 -51 1 -107 1 -66 -3 -103 -9 -103 -6 0 -11 4 -11
8 0 21 -68 45 -110 39 -90 -12 -142 -84 -142 -200 -1 -111 38 -184 109 -208
45 -14 95 -4 132 26 l29 25 6 -25 c5 -21 12 -25 46 -25 l40 0 0 290 0 290 -45
-2 c-25 -1 -45 -5 -46 -8z m-26 -271 c62 -85 5 -243 -82 -224 -75 16 -96 192
-28 240 33 23 86 15 110 -16z"/>
<path d="M1445 3664 c-24 -24 -15 -66 17 -81 33 -16 57 -8 69 25 20 53 -46 96
-86 56z"/>
<path d="M2460 3675 c-1 0 -1 -121 -2 -268 -1 -261 0 -269 20 -290 15 -15 34
-21 69 -21 45 -1 48 1 51 27 2 19 -1 27 -12 27 -31 0 -36 38 -36 282 l0 243
-45 0 c-25 0 -45 0 -45 0z"/>
<path d="M3850 3390 l0 -290 40 0 c36 0 40 2 40 26 l0 26 37 -32 c33 -29 41
-32 85 -28 84 9 142 70 153 163 15 116 -28 221 -100 245 -49 16 -111 7 -141
-21 l-24 -22 0 111 0 112 -45 0 -45 0 0 -290z m239 11 c15 -21 21 -44 21 -85
0 -112 -49 -167 -115 -132 -50 27 -68 96 -45 175 14 51 37 71 81 71 30 0 42
-6 58 -29z"/>
<path d="M4290 3430 c0 -275 6 -311 55 -330 63 -24 115 -3 115 46 0 20 -5 24
-30 24 -24 0 -33 6 -41 27 -5 15 -9 121 -9 252 l2 226 -46 3 -46 3 0 -251z"/>
<path d="M5320 3390 l0 -290 45 0 45 0 0 63 c0 50 4 68 19 81 19 17 21 15 73
-63 l53 -81 57 0 58 0 -81 110 c-45 61 -79 116 -76 123 3 6 32 45 66 84 34 40
61 76 61 80 0 5 -20 9 -45 11 l-44 2 -71 -91 -70 -91 0 176 0 176 -45 0 -45 0
0 -290z"/>
<path d="M1440 3303 l0 -203 49 0 49 0 1 150 c1 82 -1 171 -5 199 l-6 49 -44
4 -44 3 0 -202z"/>
<path d="M1713 3499 c-44 -13 -83 -62 -83 -105 0 -57 24 -90 77 -109 27 -10
62 -22 78 -28 41 -14 55 -26 55 -47 0 -47 -78 -59 -149 -22 -41 22 -44 22 -57
5 -40 -52 23 -98 133 -98 83 0 116 18 147 79 36 74 -6 139 -109 167 -55 15
-85 36 -85 59 0 41 86 54 130 20 32 -25 47 -25 55 0 20 64 -88 109 -192 79z"/>
<path d="M2043 3502 l-43 -3 0 -280 0 -279 45 0 45 0 0 100 0 99 36 -24 c45
-30 105 -33 154 -6 115 61 115 321 0 382 -19 11 -53 19 -75 19 -42 0 -104 -31
-106 -52 -1 -7 -4 1 -8 17 -6 28 -8 30 -48 27z m186 -91 c19 -19 41 -79 41
-111 0 -32 -22 -92 -41 -111 -44 -44 -121 -8 -134 65 -10 51 2 120 26 150 25
32 80 35 108 7z"/>
<path d="M2732 3498 c-50 -17 -85 -54 -77 -81 12 -38 22 -40 58 -13 49 38 99
44 126 17 23 -23 28 -59 9 -65 -153 -47 -208 -88 -208 -156 0 -99 125 -146
196 -75 28 28 34 30 34 14 0 -21 35 -38 78 -39 41 0 54 13 33 36 -5 5 -11 68
-13 139 -4 140 -16 180 -63 211 -30 20 -129 27 -173 12z m134 -240 c-9 -54
-40 -88 -81 -88 -86 0 -67 92 25 118 61 18 63 16 56 -30z"/>
<path d="M3020 3499 c0 -4 13 -40 29 -81 15 -40 50 -129 77 -196 l48 -124 -19
-36 c-14 -25 -30 -40 -52 -47 -29 -8 -33 -14 -33 -42 0 -30 3 -33 30 -33 70 0
115 43 156 153 15 40 55 147 90 239 35 92 64 170 64 173 0 3 -20 4 -46 3 -30
-1 -48 -7 -53 -17 -4 -9 -25 -79 -46 -155 -32 -117 -40 -135 -48 -115 -5 13
-28 80 -52 149 l-43 125 -51 5 c-28 3 -51 2 -51 -1z"/>
<path d="M3470 3490 c-11 -11 -20 -29 -20 -40 0 -11 9 -29 20 -40 26 -26 55
-25 81 1 15 15 19 28 14 47 -12 52 -60 67 -95 32z"/>
<path d="M4603 3499 c-81 -24 -132 -123 -119 -232 15 -117 89 -183 197 -174
114 10 171 70 177 190 5 84 -10 136 -52 175 -51 49 -125 63 -203 41z m102 -71
c37 -17 55 -58 55 -126 0 -77 -30 -125 -79 -130 -68 -7 -108 55 -98 153 6 62
22 91 57 104 34 13 35 13 65 -1z"/>
<path d="M5024 3491 c-75 -34 -109 -102 -102 -204 6 -84 31 -133 87 -168 68
-44 154 -38 209 13 29 28 28 54 -3 74 -24 16 -27 16 -48 -3 -32 -30 -62 -36
-94 -19 -43 22 -56 54 -51 130 3 51 9 71 28 91 32 34 75 33 112 -1 26 -26 28
-26 53 -10 29 19 31 33 9 65 -36 50 -127 65 -200 32z"/>
<path d="M3462 3174 c-13 -27 -6 -50 21 -73 40 -32 102 31 77 78 -8 16 -20 21
-49 21 -31 0 -40 -5 -49 -26z"/>
</g>
</svg>
